# xmcd
#
# Track frame offsets: 
#        180
#        13885
#        28790
#        40312
#        52925
#        68423
#        80485
#        91668
#        103779
#        116905
#        129380
#        144457
#
# Disc length: 2074 seconds
#
# Revision: 10
# Processed by: cddbd v1.5.2PL0 Copyright (c) Steve Scherf et al.
# Submitted via: ExactAudioCopy v1.0b3
#
DISCID=9a08180c
DTITLE=Li'l Mo and the Monicats featuring Monica Passin - Li'l Mo and 
DTITLE=the Monicats featuring Monica Passin
DYEAR=1900
DGENRE=
TTITLE0=Every Kind Of Music But Country
TTITLE1=Two Hearts (Tender, Lovin' and True)
TTITLE2=Packin' Up and Movin' Out
TTITLE3=Let's Invite Them Over
TTITLE4=Put Up A Fight
TTITLE5=Too Many
TTITLE6=That Cat
TTITLE7=Sideburn Daddy
TTITLE8=Out Of Business
TTITLE9=Paradise Lost
TTITLE10=You Took Me
TTITLE11=She-Wolf
EXTD=\nURL: http://pages.prodigy.net/mike/monicats "The Monicats"
EXTT0=
EXTT1=
EXTT2=
EXTT3=
EXTT4=
EXTT5=
EXTT6=
EXTT7=
EXTT8=
EXTT9=
EXTT10=
EXTT11=
PLAYORDER=
